<mxfile host="Electron" modified="2023-11-04T17:20:09.694Z" agent="Mozilla/5.0 (Macintosh; Intel Mac OS X 10_15_7) AppleWebKit/537.36 (KHTML, like Gecko) draw.io/22.0.2 Chrome/114.0.5735.289 Electron/25.8.4 Safari/537.36" etag="NQ-lRn455Xdo9mOW3x_a" version="22.0.2" type="device" pages="2">
  <diagram name="Page-1" id="OetHhYxeDiBCUvdceRLm">
    <mxGraphModel dx="1292" dy="1124" grid="0" gridSize="10" guides="1" tooltips="1" connect="1" arrows="1" fold="1" page="0" pageScale="1" pageWidth="850" pageHeight="1100" math="0" shadow="0">
      <root>
        <mxCell id="0" />
        <mxCell id="1" parent="0" />
        <mxCell id="7Fv7ONmK5-GxddYxV0Ys-1" value="Person" style="whiteSpace=wrap;html=1;align=center;fontSize=16;" parent="1" vertex="1">
          <mxGeometry x="43" y="251" width="100" height="40" as="geometry" />
        </mxCell>
        <mxCell id="7Fv7ONmK5-GxddYxV0Ys-2" value="id" style="ellipse;whiteSpace=wrap;html=1;align=center;fontStyle=4;fontSize=16;" parent="1" vertex="1">
          <mxGeometry x="-135" y="161" width="100" height="40" as="geometry" />
        </mxCell>
        <mxCell id="7Fv7ONmK5-GxddYxV0Ys-3" value="" style="endArrow=none;html=1;rounded=0;fontSize=12;startSize=8;endSize=8;curved=1;exitX=0.5;exitY=1;exitDx=0;exitDy=0;entryX=0;entryY=0;entryDx=0;entryDy=0;" parent="1" source="7Fv7ONmK5-GxddYxV0Ys-2" target="7Fv7ONmK5-GxddYxV0Ys-1" edge="1">
          <mxGeometry relative="1" as="geometry">
            <mxPoint x="13" y="271" as="sourcePoint" />
            <mxPoint x="173" y="271" as="targetPoint" />
          </mxGeometry>
        </mxCell>
        <mxCell id="7Fv7ONmK5-GxddYxV0Ys-4" value="age" style="ellipse;whiteSpace=wrap;html=1;align=center;dashed=1;fontSize=16;" parent="1" vertex="1">
          <mxGeometry x="-187" y="212" width="100" height="40" as="geometry" />
        </mxCell>
        <mxCell id="7Fv7ONmK5-GxddYxV0Ys-6" value="birth date" style="ellipse;whiteSpace=wrap;html=1;align=center;fontSize=16;" parent="1" vertex="1">
          <mxGeometry x="-87" y="354" width="100" height="40" as="geometry" />
        </mxCell>
        <mxCell id="7Fv7ONmK5-GxddYxV0Ys-10" value="" style="endArrow=none;html=1;rounded=0;fontSize=12;startSize=8;endSize=8;curved=1;exitX=0.5;exitY=0;exitDx=0;exitDy=0;entryX=0.25;entryY=1;entryDx=0;entryDy=0;" parent="1" source="7Fv7ONmK5-GxddYxV0Ys-6" target="7Fv7ONmK5-GxddYxV0Ys-1" edge="1">
          <mxGeometry relative="1" as="geometry">
            <mxPoint x="13" y="271" as="sourcePoint" />
            <mxPoint x="173" y="271" as="targetPoint" />
          </mxGeometry>
        </mxCell>
        <mxCell id="7Fv7ONmK5-GxddYxV0Ys-11" value="" style="endArrow=none;html=1;rounded=0;fontSize=12;startSize=8;endSize=8;curved=1;exitX=1;exitY=0.5;exitDx=0;exitDy=0;entryX=0;entryY=0.5;entryDx=0;entryDy=0;" parent="1" source="7Fv7ONmK5-GxddYxV0Ys-4" target="7Fv7ONmK5-GxddYxV0Ys-1" edge="1">
          <mxGeometry relative="1" as="geometry">
            <mxPoint x="13" y="271" as="sourcePoint" />
            <mxPoint x="13" y="281" as="targetPoint" />
          </mxGeometry>
        </mxCell>
        <mxCell id="7Fv7ONmK5-GxddYxV0Ys-12" value="Drink" style="whiteSpace=wrap;html=1;align=center;fontSize=16;" parent="1" vertex="1">
          <mxGeometry x="394" y="146" width="100" height="40" as="geometry" />
        </mxCell>
        <mxCell id="7Fv7ONmK5-GxddYxV0Ys-14" value="" style="endArrow=none;html=1;rounded=0;fontSize=12;startSize=8;endSize=8;curved=1;exitX=0.5;exitY=1;exitDx=0;exitDy=0;entryX=0.5;entryY=0;entryDx=0;entryDy=0;" parent="1" source="FswRGte9XY_PrIvu7Jsl-37" target="7Fv7ONmK5-GxddYxV0Ys-12" edge="1">
          <mxGeometry relative="1" as="geometry">
            <mxPoint x="432" y="99" as="sourcePoint" />
            <mxPoint x="357" y="200" as="targetPoint" />
          </mxGeometry>
        </mxCell>
        <mxCell id="7Fv7ONmK5-GxddYxV0Ys-17" style="edgeStyle=none;curved=1;rounded=0;orthogonalLoop=1;jettySize=auto;html=1;entryX=0.5;entryY=1;entryDx=0;entryDy=0;fontSize=12;startSize=8;endSize=8;" parent="1" edge="1">
          <mxGeometry relative="1" as="geometry">
            <mxPoint x="432" y="99" as="sourcePoint" />
            <mxPoint x="432" y="99" as="targetPoint" />
          </mxGeometry>
        </mxCell>
        <mxCell id="7Fv7ONmK5-GxddYxV0Ys-18" value="Contains" style="shape=rhombus;perimeter=rhombusPerimeter;whiteSpace=wrap;html=1;align=center;fontSize=16;" parent="1" vertex="1">
          <mxGeometry x="270" y="260" width="120" height="60" as="geometry" />
        </mxCell>
        <mxCell id="7Fv7ONmK5-GxddYxV0Ys-22" value="alcoholic" style="ellipse;whiteSpace=wrap;html=1;align=center;fontSize=16;" parent="1" vertex="1">
          <mxGeometry x="810" y="269" width="100" height="40" as="geometry" />
        </mxCell>
        <mxCell id="7Fv7ONmK5-GxddYxV0Ys-23" value="first name" style="ellipse;whiteSpace=wrap;html=1;align=center;fontSize=16;" parent="1" vertex="1">
          <mxGeometry x="21" y="335" width="100" height="40" as="geometry" />
        </mxCell>
        <mxCell id="7Fv7ONmK5-GxddYxV0Ys-24" value="last name" style="ellipse;whiteSpace=wrap;html=1;align=center;fontSize=16;" parent="1" vertex="1">
          <mxGeometry x="79" y="140" width="100" height="40" as="geometry" />
        </mxCell>
        <mxCell id="7Fv7ONmK5-GxddYxV0Ys-25" value="" style="endArrow=none;html=1;rounded=0;fontSize=12;startSize=8;endSize=8;curved=1;exitX=0.5;exitY=1;exitDx=0;exitDy=0;entryX=0.5;entryY=0;entryDx=0;entryDy=0;" parent="1" source="7Fv7ONmK5-GxddYxV0Ys-24" target="7Fv7ONmK5-GxddYxV0Ys-1" edge="1">
          <mxGeometry relative="1" as="geometry">
            <mxPoint x="359" y="200" as="sourcePoint" />
            <mxPoint x="519" y="200" as="targetPoint" />
          </mxGeometry>
        </mxCell>
        <mxCell id="7Fv7ONmK5-GxddYxV0Ys-26" value="" style="endArrow=none;html=1;rounded=0;fontSize=12;startSize=8;endSize=8;curved=1;exitX=0.5;exitY=1;exitDx=0;exitDy=0;entryX=0.5;entryY=0;entryDx=0;entryDy=0;" parent="1" source="7Fv7ONmK5-GxddYxV0Ys-1" target="7Fv7ONmK5-GxddYxV0Ys-23" edge="1">
          <mxGeometry relative="1" as="geometry">
            <mxPoint x="160" y="208" as="sourcePoint" />
            <mxPoint x="103" y="261" as="targetPoint" />
          </mxGeometry>
        </mxCell>
        <mxCell id="7Fv7ONmK5-GxddYxV0Ys-27" value="name" style="ellipse;whiteSpace=wrap;html=1;align=center;fontSize=16;" parent="1" vertex="1">
          <mxGeometry x="696" y="172" width="100" height="40" as="geometry" />
        </mxCell>
        <mxCell id="7Fv7ONmK5-GxddYxV0Ys-28" value="name" style="ellipse;whiteSpace=wrap;html=1;align=center;fontSize=16;" parent="1" vertex="1">
          <mxGeometry x="506" y="68" width="100" height="40" as="geometry" />
        </mxCell>
        <mxCell id="7Fv7ONmK5-GxddYxV0Ys-32" value="" style="endArrow=none;html=1;rounded=0;fontSize=12;startSize=8;endSize=8;curved=1;exitX=1;exitY=0.5;exitDx=0;exitDy=0;" parent="1" source="7Fv7ONmK5-GxddYxV0Ys-101" target="7Fv7ONmK5-GxddYxV0Ys-22" edge="1">
          <mxGeometry relative="1" as="geometry">
            <mxPoint x="122" y="102" as="sourcePoint" />
            <mxPoint x="282" y="102" as="targetPoint" />
          </mxGeometry>
        </mxCell>
        <mxCell id="7Fv7ONmK5-GxddYxV0Ys-33" value="" style="endArrow=none;html=1;rounded=0;fontSize=12;startSize=8;endSize=8;curved=1;entryX=0.5;entryY=1;entryDx=0;entryDy=0;exitX=0.75;exitY=0;exitDx=0;exitDy=0;" parent="1" source="7Fv7ONmK5-GxddYxV0Ys-101" target="7Fv7ONmK5-GxddYxV0Ys-27" edge="1">
          <mxGeometry relative="1" as="geometry">
            <mxPoint x="431" y="69" as="sourcePoint" />
            <mxPoint x="467" y="19" as="targetPoint" />
          </mxGeometry>
        </mxCell>
        <mxCell id="7Fv7ONmK5-GxddYxV0Ys-34" value="" style="endArrow=none;html=1;rounded=0;fontSize=12;startSize=8;endSize=8;curved=1;entryX=0.5;entryY=1;entryDx=0;entryDy=0;exitX=1;exitY=0;exitDx=0;exitDy=0;" parent="1" source="7Fv7ONmK5-GxddYxV0Ys-12" target="7Fv7ONmK5-GxddYxV0Ys-28" edge="1">
          <mxGeometry relative="1" as="geometry">
            <mxPoint x="658" y="167" as="sourcePoint" />
            <mxPoint x="694" y="117" as="targetPoint" />
          </mxGeometry>
        </mxCell>
        <mxCell id="7Fv7ONmK5-GxddYxV0Ys-36" value="Food" style="whiteSpace=wrap;html=1;align=center;fontSize=16;" parent="1" vertex="1">
          <mxGeometry x="511" y="295" width="100" height="40" as="geometry" />
        </mxCell>
        <mxCell id="7Fv7ONmK5-GxddYxV0Ys-37" value="price" style="ellipse;whiteSpace=wrap;html=1;align=center;fontSize=16;" parent="1" vertex="1">
          <mxGeometry x="263" y="87" width="100" height="40" as="geometry" />
        </mxCell>
        <mxCell id="7Fv7ONmK5-GxddYxV0Ys-38" value="" style="endArrow=none;html=1;rounded=0;fontSize=12;startSize=8;endSize=8;curved=1;exitX=1;exitY=1;exitDx=0;exitDy=0;entryX=0;entryY=0;entryDx=0;entryDy=0;" parent="1" source="7Fv7ONmK5-GxddYxV0Ys-37" target="7Fv7ONmK5-GxddYxV0Ys-12" edge="1">
          <mxGeometry relative="1" as="geometry">
            <mxPoint x="349" y="200" as="sourcePoint" />
            <mxPoint x="509" y="200" as="targetPoint" />
          </mxGeometry>
        </mxCell>
        <mxCell id="7Fv7ONmK5-GxddYxV0Ys-39" value="percentage" style="ellipse;whiteSpace=wrap;html=1;align=center;fontSize=16;" parent="1" vertex="1">
          <mxGeometry x="643" y="93" width="100" height="40" as="geometry" />
        </mxCell>
        <mxCell id="7Fv7ONmK5-GxddYxV0Ys-41" value="name" style="ellipse;whiteSpace=wrap;html=1;align=center;fontSize=16;" parent="1" vertex="1">
          <mxGeometry x="663" y="321" width="100" height="40" as="geometry" />
        </mxCell>
        <mxCell id="7Fv7ONmK5-GxddYxV0Ys-42" value="price" style="ellipse;whiteSpace=wrap;html=1;align=center;fontSize=16;" parent="1" vertex="1">
          <mxGeometry x="563" y="381" width="100" height="40" as="geometry" />
        </mxCell>
        <mxCell id="7Fv7ONmK5-GxddYxV0Ys-43" value="id" style="ellipse;whiteSpace=wrap;html=1;align=center;fontStyle=4;fontSize=16;" parent="1" vertex="1">
          <mxGeometry x="254" y="158" width="100" height="40" as="geometry" />
        </mxCell>
        <mxCell id="7Fv7ONmK5-GxddYxV0Ys-44" value="id" style="ellipse;whiteSpace=wrap;html=1;align=center;fontStyle=4;fontSize=16;" parent="1" vertex="1">
          <mxGeometry x="452" y="367" width="100" height="40" as="geometry" />
        </mxCell>
        <mxCell id="7Fv7ONmK5-GxddYxV0Ys-46" value="" style="endArrow=none;html=1;rounded=0;fontSize=12;startSize=8;endSize=8;curved=1;exitX=1;exitY=0.5;exitDx=0;exitDy=0;entryX=0;entryY=0.5;entryDx=0;entryDy=0;" parent="1" source="7Fv7ONmK5-GxddYxV0Ys-43" target="7Fv7ONmK5-GxddYxV0Ys-12" edge="1">
          <mxGeometry relative="1" as="geometry">
            <mxPoint x="425" y="302" as="sourcePoint" />
            <mxPoint x="509" y="200" as="targetPoint" />
          </mxGeometry>
        </mxCell>
        <mxCell id="7Fv7ONmK5-GxddYxV0Ys-47" value="" style="endArrow=none;html=1;rounded=0;fontSize=12;startSize=8;endSize=8;curved=1;exitX=1;exitY=0.5;exitDx=0;exitDy=0;entryX=0;entryY=0.5;entryDx=0;entryDy=0;" parent="1" source="7Fv7ONmK5-GxddYxV0Ys-36" target="7Fv7ONmK5-GxddYxV0Ys-41" edge="1">
          <mxGeometry relative="1" as="geometry">
            <mxPoint x="349" y="200" as="sourcePoint" />
            <mxPoint x="509" y="200" as="targetPoint" />
          </mxGeometry>
        </mxCell>
        <mxCell id="7Fv7ONmK5-GxddYxV0Ys-48" value="" style="endArrow=none;html=1;rounded=0;fontSize=12;startSize=8;endSize=8;curved=1;exitX=0.5;exitY=0;exitDx=0;exitDy=0;entryX=0.75;entryY=1;entryDx=0;entryDy=0;" parent="1" source="7Fv7ONmK5-GxddYxV0Ys-42" target="7Fv7ONmK5-GxddYxV0Ys-36" edge="1">
          <mxGeometry relative="1" as="geometry">
            <mxPoint x="349" y="200" as="sourcePoint" />
            <mxPoint x="509" y="200" as="targetPoint" />
          </mxGeometry>
        </mxCell>
        <mxCell id="7Fv7ONmK5-GxddYxV0Ys-49" value="" style="endArrow=none;html=1;rounded=0;fontSize=12;startSize=8;endSize=8;curved=1;entryX=0.5;entryY=0;entryDx=0;entryDy=0;exitX=0.5;exitY=1;exitDx=0;exitDy=0;" parent="1" source="7Fv7ONmK5-GxddYxV0Ys-36" target="7Fv7ONmK5-GxddYxV0Ys-44" edge="1">
          <mxGeometry relative="1" as="geometry">
            <mxPoint x="349" y="200" as="sourcePoint" />
            <mxPoint x="509" y="200" as="targetPoint" />
          </mxGeometry>
        </mxCell>
        <mxCell id="7Fv7ONmK5-GxddYxV0Ys-56" value="" style="endArrow=none;html=1;rounded=0;fontSize=12;startSize=8;endSize=8;curved=1;exitX=0.5;exitY=1;exitDx=0;exitDy=0;entryX=0.5;entryY=0;entryDx=0;entryDy=0;" parent="1" source="7Fv7ONmK5-GxddYxV0Ys-12" target="7Fv7ONmK5-GxddYxV0Ys-18" edge="1">
          <mxGeometry relative="1" as="geometry">
            <mxPoint x="153" y="281" as="sourcePoint" />
            <mxPoint x="301" y="331" as="targetPoint" />
          </mxGeometry>
        </mxCell>
        <mxCell id="7Fv7ONmK5-GxddYxV0Ys-57" value="N" style="resizable=0;html=1;whiteSpace=wrap;align=right;verticalAlign=bottom;fontSize=16;" parent="7Fv7ONmK5-GxddYxV0Ys-56" connectable="0" vertex="1">
          <mxGeometry x="1" relative="1" as="geometry" />
        </mxCell>
        <mxCell id="7Fv7ONmK5-GxddYxV0Ys-58" value="" style="endArrow=none;html=1;rounded=0;fontSize=12;startSize=8;endSize=8;curved=1;exitX=0;exitY=0.5;exitDx=0;exitDy=0;entryX=1;entryY=0.5;entryDx=0;entryDy=0;" parent="1" source="7Fv7ONmK5-GxddYxV0Ys-36" target="7Fv7ONmK5-GxddYxV0Ys-18" edge="1">
          <mxGeometry relative="1" as="geometry">
            <mxPoint x="454" y="196" as="sourcePoint" />
            <mxPoint x="361" y="301" as="targetPoint" />
          </mxGeometry>
        </mxCell>
        <mxCell id="7Fv7ONmK5-GxddYxV0Ys-59" value="N" style="resizable=0;html=1;whiteSpace=wrap;align=right;verticalAlign=bottom;fontSize=16;" parent="7Fv7ONmK5-GxddYxV0Ys-58" connectable="0" vertex="1">
          <mxGeometry x="1" relative="1" as="geometry" />
        </mxCell>
        <mxCell id="7Fv7ONmK5-GxddYxV0Ys-60" value="open time" style="ellipse;whiteSpace=wrap;html=1;align=center;fontSize=16;" parent="1" vertex="1">
          <mxGeometry x="211" y="497" width="100" height="40" as="geometry" />
        </mxCell>
        <mxCell id="7Fv7ONmK5-GxddYxV0Ys-63" value="" style="endArrow=none;html=1;rounded=0;fontSize=12;startSize=8;endSize=8;curved=1;exitX=0.25;exitY=1;exitDx=0;exitDy=0;entryX=0.5;entryY=0;entryDx=0;entryDy=0;" parent="1" source="7Fv7ONmK5-GxddYxV0Ys-80" target="7Fv7ONmK5-GxddYxV0Ys-60" edge="1">
          <mxGeometry relative="1" as="geometry">
            <mxPoint x="272" y="336" as="sourcePoint" />
            <mxPoint x="281" y="387" as="targetPoint" />
          </mxGeometry>
        </mxCell>
        <mxCell id="7Fv7ONmK5-GxddYxV0Ys-68" value="sex" style="ellipse;whiteSpace=wrap;html=1;align=center;fontSize=16;" parent="1" vertex="1">
          <mxGeometry x="-23" y="148" width="100" height="40" as="geometry" />
        </mxCell>
        <mxCell id="7Fv7ONmK5-GxddYxV0Ys-69" value="" style="endArrow=none;html=1;rounded=0;fontSize=12;startSize=8;endSize=8;curved=1;exitX=0.5;exitY=1;exitDx=0;exitDy=0;entryX=0.25;entryY=0;entryDx=0;entryDy=0;" parent="1" source="7Fv7ONmK5-GxddYxV0Ys-68" target="7Fv7ONmK5-GxddYxV0Ys-1" edge="1">
          <mxGeometry relative="1" as="geometry">
            <mxPoint x="289" y="201" as="sourcePoint" />
            <mxPoint x="449" y="201" as="targetPoint" />
          </mxGeometry>
        </mxCell>
        <mxCell id="7Fv7ONmK5-GxddYxV0Ys-80" value="Check" style="whiteSpace=wrap;html=1;align=center;fontSize=16;" parent="1" vertex="1">
          <mxGeometry x="329" y="409" width="100" height="40" as="geometry" />
        </mxCell>
        <mxCell id="7Fv7ONmK5-GxddYxV0Ys-82" value="Owns" style="shape=rhombus;perimeter=rhombusPerimeter;whiteSpace=wrap;html=1;align=center;fontSize=16;" parent="1" vertex="1">
          <mxGeometry x="171" y="361" width="120" height="60" as="geometry" />
        </mxCell>
        <mxCell id="7Fv7ONmK5-GxddYxV0Ys-83" value="" style="endArrow=none;html=1;rounded=0;fontSize=12;startSize=8;endSize=8;curved=1;exitX=1;exitY=1;exitDx=0;exitDy=0;entryX=0;entryY=0;entryDx=0;entryDy=0;" parent="1" source="7Fv7ONmK5-GxddYxV0Ys-1" target="7Fv7ONmK5-GxddYxV0Ys-82" edge="1">
          <mxGeometry relative="1" as="geometry">
            <mxPoint x="266" y="468" as="sourcePoint" />
            <mxPoint x="426" y="468" as="targetPoint" />
          </mxGeometry>
        </mxCell>
        <mxCell id="7Fv7ONmK5-GxddYxV0Ys-84" value="1" style="resizable=0;html=1;whiteSpace=wrap;align=right;verticalAlign=bottom;fontSize=16;" parent="7Fv7ONmK5-GxddYxV0Ys-83" connectable="0" vertex="1">
          <mxGeometry x="1" relative="1" as="geometry">
            <mxPoint x="9" y="-4" as="offset" />
          </mxGeometry>
        </mxCell>
        <mxCell id="7Fv7ONmK5-GxddYxV0Ys-87" value="" style="endArrow=none;html=1;rounded=0;fontSize=12;startSize=8;endSize=8;curved=1;entryX=1;entryY=1;entryDx=0;entryDy=0;exitX=0;exitY=0;exitDx=0;exitDy=0;" parent="1" source="7Fv7ONmK5-GxddYxV0Ys-80" target="7Fv7ONmK5-GxddYxV0Ys-82" edge="1">
          <mxGeometry relative="1" as="geometry">
            <mxPoint x="266" y="468" as="sourcePoint" />
            <mxPoint x="426" y="468" as="targetPoint" />
          </mxGeometry>
        </mxCell>
        <mxCell id="7Fv7ONmK5-GxddYxV0Ys-88" value="N" style="resizable=0;html=1;whiteSpace=wrap;align=right;verticalAlign=bottom;fontSize=16;" parent="7Fv7ONmK5-GxddYxV0Ys-87" connectable="0" vertex="1">
          <mxGeometry x="1" relative="1" as="geometry">
            <mxPoint x="8" y="25" as="offset" />
          </mxGeometry>
        </mxCell>
        <mxCell id="7Fv7ONmK5-GxddYxV0Ys-89" value="" style="endArrow=none;html=1;rounded=0;fontSize=12;startSize=8;endSize=8;curved=1;entryX=0.5;entryY=1;entryDx=0;entryDy=0;exitX=0.5;exitY=0;exitDx=0;exitDy=0;" parent="1" source="7Fv7ONmK5-GxddYxV0Ys-80" target="7Fv7ONmK5-GxddYxV0Ys-18" edge="1">
          <mxGeometry relative="1" as="geometry">
            <mxPoint x="342" y="509" as="sourcePoint" />
            <mxPoint x="271" y="416" as="targetPoint" />
          </mxGeometry>
        </mxCell>
        <mxCell id="7Fv7ONmK5-GxddYxV0Ys-90" value="N" style="resizable=0;html=1;whiteSpace=wrap;align=right;verticalAlign=bottom;fontSize=16;" parent="7Fv7ONmK5-GxddYxV0Ys-89" connectable="0" vertex="1">
          <mxGeometry x="1" relative="1" as="geometry">
            <mxPoint x="24" y="19" as="offset" />
          </mxGeometry>
        </mxCell>
        <mxCell id="7Fv7ONmK5-GxddYxV0Ys-91" value="id" style="ellipse;whiteSpace=wrap;html=1;align=center;fontStyle=4;fontSize=16;" parent="1" vertex="1">
          <mxGeometry x="111" y="464" width="100" height="40" as="geometry" />
        </mxCell>
        <mxCell id="7Fv7ONmK5-GxddYxV0Ys-92" value="" style="endArrow=none;html=1;rounded=0;fontSize=12;startSize=8;endSize=8;curved=1;entryX=0.5;entryY=0;entryDx=0;entryDy=0;exitX=0;exitY=1;exitDx=0;exitDy=0;" parent="1" source="7Fv7ONmK5-GxddYxV0Ys-80" target="7Fv7ONmK5-GxddYxV0Ys-91" edge="1">
          <mxGeometry relative="1" as="geometry">
            <mxPoint x="201" y="456" as="sourcePoint" />
            <mxPoint x="149" y="321" as="targetPoint" />
          </mxGeometry>
        </mxCell>
        <mxCell id="7Fv7ONmK5-GxddYxV0Ys-93" value="paid for" style="ellipse;whiteSpace=wrap;html=1;align=center;fontSize=16;" parent="1" vertex="1">
          <mxGeometry x="408" y="488" width="100" height="40" as="geometry" />
        </mxCell>
        <mxCell id="7Fv7ONmK5-GxddYxV0Ys-95" value="" style="endArrow=none;html=1;rounded=0;fontSize=12;startSize=8;endSize=8;curved=1;exitX=1;exitY=0.75;exitDx=0;exitDy=0;entryX=0.5;entryY=0;entryDx=0;entryDy=0;" parent="1" source="7Fv7ONmK5-GxddYxV0Ys-80" target="7Fv7ONmK5-GxddYxV0Ys-93" edge="1">
          <mxGeometry relative="1" as="geometry">
            <mxPoint x="266" y="468" as="sourcePoint" />
            <mxPoint x="426" y="468" as="targetPoint" />
          </mxGeometry>
        </mxCell>
        <mxCell id="7Fv7ONmK5-GxddYxV0Ys-99" value="availability" style="ellipse;whiteSpace=wrap;html=1;align=center;fontSize=16;" parent="1" vertex="1">
          <mxGeometry x="785" y="207" width="100" height="40" as="geometry" />
        </mxCell>
        <mxCell id="7Fv7ONmK5-GxddYxV0Ys-100" value="" style="endArrow=none;html=1;rounded=0;fontSize=12;startSize=8;endSize=8;curved=1;entryX=0;entryY=0.5;entryDx=0;entryDy=0;exitX=1;exitY=0;exitDx=0;exitDy=0;" parent="1" source="7Fv7ONmK5-GxddYxV0Ys-101" target="7Fv7ONmK5-GxddYxV0Ys-99" edge="1">
          <mxGeometry relative="1" as="geometry">
            <mxPoint x="431" y="97" as="sourcePoint" />
            <mxPoint x="499" y="97" as="targetPoint" />
          </mxGeometry>
        </mxCell>
        <mxCell id="7Fv7ONmK5-GxddYxV0Ys-101" value="Ingredient" style="whiteSpace=wrap;html=1;align=center;fontSize=16;" parent="1" vertex="1">
          <mxGeometry x="682" y="263" width="100" height="40" as="geometry" />
        </mxCell>
        <mxCell id="7Fv7ONmK5-GxddYxV0Ys-102" value="Contains" style="shape=rhombus;perimeter=rhombusPerimeter;whiteSpace=wrap;html=1;align=center;fontSize=16;" parent="1" vertex="1">
          <mxGeometry x="529" y="166" width="120" height="60" as="geometry" />
        </mxCell>
        <mxCell id="7Fv7ONmK5-GxddYxV0Ys-103" value="" style="endArrow=none;html=1;rounded=0;fontSize=12;startSize=8;endSize=8;curved=1;exitX=1;exitY=0;exitDx=0;exitDy=0;entryX=0.5;entryY=1;entryDx=0;entryDy=0;" parent="1" source="7Fv7ONmK5-GxddYxV0Ys-102" target="7Fv7ONmK5-GxddYxV0Ys-39" edge="1">
          <mxGeometry relative="1" as="geometry">
            <mxPoint x="560" y="391" as="sourcePoint" />
            <mxPoint x="720" y="391" as="targetPoint" />
          </mxGeometry>
        </mxCell>
        <mxCell id="7Fv7ONmK5-GxddYxV0Ys-104" value="" style="endArrow=none;html=1;rounded=0;fontSize=12;startSize=8;endSize=8;curved=1;entryX=0;entryY=0;entryDx=0;entryDy=0;exitX=1;exitY=0.5;exitDx=0;exitDy=0;" parent="1" source="7Fv7ONmK5-GxddYxV0Ys-12" target="7Fv7ONmK5-GxddYxV0Ys-102" edge="1">
          <mxGeometry relative="1" as="geometry">
            <mxPoint x="560" y="391" as="sourcePoint" />
            <mxPoint x="720" y="391" as="targetPoint" />
          </mxGeometry>
        </mxCell>
        <mxCell id="7Fv7ONmK5-GxddYxV0Ys-105" value="N" style="resizable=0;html=1;whiteSpace=wrap;align=right;verticalAlign=bottom;fontSize=16;" parent="7Fv7ONmK5-GxddYxV0Ys-104" connectable="0" vertex="1">
          <mxGeometry x="1" relative="1" as="geometry" />
        </mxCell>
        <mxCell id="7Fv7ONmK5-GxddYxV0Ys-106" value="" style="endArrow=none;html=1;rounded=0;fontSize=12;startSize=8;endSize=8;curved=1;entryX=1;entryY=1;entryDx=0;entryDy=0;exitX=0;exitY=0;exitDx=0;exitDy=0;" parent="1" source="7Fv7ONmK5-GxddYxV0Ys-101" target="7Fv7ONmK5-GxddYxV0Ys-102" edge="1">
          <mxGeometry relative="1" as="geometry">
            <mxPoint x="560" y="391" as="sourcePoint" />
            <mxPoint x="720" y="391" as="targetPoint" />
          </mxGeometry>
        </mxCell>
        <mxCell id="7Fv7ONmK5-GxddYxV0Ys-107" value="N" style="resizable=0;html=1;whiteSpace=wrap;align=right;verticalAlign=bottom;fontSize=16;" parent="7Fv7ONmK5-GxddYxV0Ys-106" connectable="0" vertex="1">
          <mxGeometry x="1" relative="1" as="geometry">
            <mxPoint x="7" y="26" as="offset" />
          </mxGeometry>
        </mxCell>
        <mxCell id="7Fv7ONmK5-GxddYxV0Ys-110" value="id" style="ellipse;whiteSpace=wrap;html=1;align=center;fontStyle=4;fontSize=16;" parent="1" vertex="1">
          <mxGeometry x="799" y="349" width="100" height="40" as="geometry" />
        </mxCell>
        <mxCell id="7Fv7ONmK5-GxddYxV0Ys-111" value="" style="endArrow=none;html=1;rounded=0;fontSize=12;startSize=8;endSize=8;curved=1;exitX=1;exitY=1;exitDx=0;exitDy=0;entryX=0.5;entryY=0;entryDx=0;entryDy=0;" parent="1" source="7Fv7ONmK5-GxddYxV0Ys-101" target="7Fv7ONmK5-GxddYxV0Ys-110" edge="1">
          <mxGeometry relative="1" as="geometry">
            <mxPoint x="552" y="435" as="sourcePoint" />
            <mxPoint x="712" y="435" as="targetPoint" />
          </mxGeometry>
        </mxCell>
        <mxCell id="7Fv7ONmK5-GxddYxV0Ys-115" value="due amount" style="ellipse;whiteSpace=wrap;html=1;align=center;dashed=1;fontSize=16;" parent="1" vertex="1">
          <mxGeometry x="508" y="457" width="100" height="40" as="geometry" />
        </mxCell>
        <mxCell id="7Fv7ONmK5-GxddYxV0Ys-116" value="" style="endArrow=none;html=1;rounded=0;fontSize=12;startSize=8;endSize=8;curved=1;exitX=1;exitY=0.5;exitDx=0;exitDy=0;entryX=0;entryY=0.5;entryDx=0;entryDy=0;" parent="1" source="7Fv7ONmK5-GxddYxV0Ys-80" target="7Fv7ONmK5-GxddYxV0Ys-115" edge="1">
          <mxGeometry relative="1" as="geometry">
            <mxPoint x="239" y="699" as="sourcePoint" />
            <mxPoint x="399" y="699" as="targetPoint" />
          </mxGeometry>
        </mxCell>
        <mxCell id="FswRGte9XY_PrIvu7Jsl-2" value="DHT Log" style="whiteSpace=wrap;html=1;align=center;fontSize=16;" parent="1" vertex="1">
          <mxGeometry x="-272" y="476" width="100" height="40" as="geometry" />
        </mxCell>
        <mxCell id="FswRGte9XY_PrIvu7Jsl-7" value="humidity" style="ellipse;whiteSpace=wrap;html=1;align=center;fontSize=16;" parent="1" vertex="1">
          <mxGeometry x="-123" y="534" width="100" height="40" as="geometry" />
        </mxCell>
        <mxCell id="FswRGte9XY_PrIvu7Jsl-8" value="temperature" style="ellipse;whiteSpace=wrap;html=1;align=center;fontSize=16;" parent="1" vertex="1">
          <mxGeometry x="-230" y="587" width="100" height="40" as="geometry" />
        </mxCell>
        <mxCell id="FswRGte9XY_PrIvu7Jsl-9" value="Volume Log" style="whiteSpace=wrap;html=1;align=center;fontSize=16;" parent="1" vertex="1">
          <mxGeometry x="778" y="491" width="100" height="40" as="geometry" />
        </mxCell>
        <mxCell id="FswRGte9XY_PrIvu7Jsl-10" value="decibels" style="ellipse;whiteSpace=wrap;html=1;align=center;fontSize=16;" parent="1" vertex="1">
          <mxGeometry x="635" y="507" width="100" height="40" as="geometry" />
        </mxCell>
        <mxCell id="FswRGte9XY_PrIvu7Jsl-13" value="" style="endArrow=none;html=1;rounded=0;fontSize=12;startSize=8;endSize=8;curved=1;entryX=0;entryY=0.5;entryDx=0;entryDy=0;exitX=1;exitY=0.5;exitDx=0;exitDy=0;" parent="1" source="FswRGte9XY_PrIvu7Jsl-10" target="FswRGte9XY_PrIvu7Jsl-9" edge="1">
          <mxGeometry relative="1" as="geometry">
            <mxPoint x="412" y="508" as="sourcePoint" />
            <mxPoint x="572" y="508" as="targetPoint" />
          </mxGeometry>
        </mxCell>
        <mxCell id="FswRGte9XY_PrIvu7Jsl-14" value="" style="endArrow=none;html=1;rounded=0;fontSize=12;startSize=8;endSize=8;curved=1;entryX=0.5;entryY=1;entryDx=0;entryDy=0;exitX=0.5;exitY=0;exitDx=0;exitDy=0;" parent="1" source="FswRGte9XY_PrIvu7Jsl-42" target="FswRGte9XY_PrIvu7Jsl-9" edge="1">
          <mxGeometry relative="1" as="geometry">
            <mxPoint x="760" y="579" as="sourcePoint" />
            <mxPoint x="788" y="521" as="targetPoint" />
          </mxGeometry>
        </mxCell>
        <mxCell id="FswRGte9XY_PrIvu7Jsl-15" value="" style="endArrow=none;html=1;rounded=0;fontSize=12;startSize=8;endSize=8;curved=1;entryX=0.5;entryY=1;entryDx=0;entryDy=0;exitX=1;exitY=0.5;exitDx=0;exitDy=0;" parent="1" source="FswRGte9XY_PrIvu7Jsl-2" target="FswRGte9XY_PrIvu7Jsl-41" edge="1">
          <mxGeometry relative="1" as="geometry">
            <mxPoint x="-23" y="600" as="sourcePoint" />
            <mxPoint x="45" y="552" as="targetPoint" />
          </mxGeometry>
        </mxCell>
        <mxCell id="FswRGte9XY_PrIvu7Jsl-16" value="" style="endArrow=none;html=1;rounded=0;fontSize=12;startSize=8;endSize=8;curved=1;entryX=0;entryY=0.5;entryDx=0;entryDy=0;exitX=1;exitY=1;exitDx=0;exitDy=0;" parent="1" source="FswRGte9XY_PrIvu7Jsl-2" target="FswRGte9XY_PrIvu7Jsl-7" edge="1">
          <mxGeometry relative="1" as="geometry">
            <mxPoint x="-162" y="506" as="sourcePoint" />
            <mxPoint x="-94" y="497" as="targetPoint" />
          </mxGeometry>
        </mxCell>
        <mxCell id="FswRGte9XY_PrIvu7Jsl-17" value="" style="endArrow=none;html=1;rounded=0;fontSize=12;startSize=8;endSize=8;curved=1;entryX=0.5;entryY=0;entryDx=0;entryDy=0;exitX=0.5;exitY=1;exitDx=0;exitDy=0;" parent="1" source="FswRGte9XY_PrIvu7Jsl-2" target="FswRGte9XY_PrIvu7Jsl-8" edge="1">
          <mxGeometry relative="1" as="geometry">
            <mxPoint x="-162" y="526" as="sourcePoint" />
            <mxPoint x="-113" y="564" as="targetPoint" />
          </mxGeometry>
        </mxCell>
        <mxCell id="FswRGte9XY_PrIvu7Jsl-33" value="curp" style="ellipse;whiteSpace=wrap;html=1;align=center;fontSize=16;" parent="1" vertex="1">
          <mxGeometry x="-195" y="330" width="100" height="40" as="geometry" />
        </mxCell>
        <mxCell id="FswRGte9XY_PrIvu7Jsl-34" value="" style="endArrow=none;html=1;rounded=0;fontSize=12;startSize=8;endSize=8;curved=1;exitX=1;exitY=0.5;exitDx=0;exitDy=0;entryX=0;entryY=1;entryDx=0;entryDy=0;" parent="1" source="FswRGte9XY_PrIvu7Jsl-33" target="7Fv7ONmK5-GxddYxV0Ys-1" edge="1">
          <mxGeometry relative="1" as="geometry">
            <mxPoint x="96" y="522" as="sourcePoint" />
            <mxPoint x="256" y="522" as="targetPoint" />
          </mxGeometry>
        </mxCell>
        <mxCell id="FswRGte9XY_PrIvu7Jsl-35" value="availability" style="ellipse;whiteSpace=wrap;html=1;align=center;fontSize=16;" parent="1" vertex="1">
          <mxGeometry x="682" y="381" width="100" height="40" as="geometry" />
        </mxCell>
        <mxCell id="FswRGte9XY_PrIvu7Jsl-36" value="" style="endArrow=none;html=1;rounded=0;fontSize=12;startSize=8;endSize=8;curved=1;exitX=1;exitY=1;exitDx=0;exitDy=0;entryX=0;entryY=0;entryDx=0;entryDy=0;" parent="1" source="7Fv7ONmK5-GxddYxV0Ys-36" target="FswRGte9XY_PrIvu7Jsl-35" edge="1">
          <mxGeometry relative="1" as="geometry">
            <mxPoint x="621" y="325" as="sourcePoint" />
            <mxPoint x="673" y="351" as="targetPoint" />
          </mxGeometry>
        </mxCell>
        <mxCell id="FswRGte9XY_PrIvu7Jsl-37" value="volume" style="ellipse;whiteSpace=wrap;html=1;align=center;fontSize=16;" parent="1" vertex="1">
          <mxGeometry x="374" y="47" width="100" height="40" as="geometry" />
        </mxCell>
        <mxCell id="FswRGte9XY_PrIvu7Jsl-38" value="Assistance Log" style="whiteSpace=wrap;html=1;align=center;fontSize=16;" parent="1" vertex="1">
          <mxGeometry x="-18" y="484" width="100" height="40" as="geometry" />
        </mxCell>
        <mxCell id="FswRGte9XY_PrIvu7Jsl-41" value="time stamp" style="ellipse;whiteSpace=wrap;html=1;align=center;fontStyle=4;fontSize=16;" parent="1" vertex="1">
          <mxGeometry x="-135" y="421" width="100" height="40" as="geometry" />
        </mxCell>
        <mxCell id="FswRGte9XY_PrIvu7Jsl-42" value="time stamp" style="ellipse;whiteSpace=wrap;html=1;align=center;fontStyle=4;fontSize=16;" parent="1" vertex="1">
          <mxGeometry x="763" y="574" width="100" height="40" as="geometry" />
        </mxCell>
        <mxCell id="FswRGte9XY_PrIvu7Jsl-43" value="time stamp" style="ellipse;whiteSpace=wrap;html=1;align=center;fontStyle=4;fontSize=16;" parent="1" vertex="1">
          <mxGeometry x="64" y="563" width="100" height="40" as="geometry" />
        </mxCell>
        <mxCell id="FswRGte9XY_PrIvu7Jsl-46" value="" style="endArrow=none;html=1;rounded=0;fontSize=12;startSize=8;endSize=8;curved=1;exitX=1;exitY=1;exitDx=0;exitDy=0;entryX=0.5;entryY=0;entryDx=0;entryDy=0;" parent="1" source="FswRGte9XY_PrIvu7Jsl-38" target="FswRGte9XY_PrIvu7Jsl-43" edge="1">
          <mxGeometry relative="1" as="geometry">
            <mxPoint x="235" y="369.5" as="sourcePoint" />
            <mxPoint x="395" y="369.5" as="targetPoint" />
          </mxGeometry>
        </mxCell>
        <mxCell id="SLdXL0dQTTPYN22yqswd-2" value="Employee" style="shape=ext;margin=3;double=1;whiteSpace=wrap;html=1;align=center;fontSize=16;" parent="1" vertex="1">
          <mxGeometry x="101" y="35" width="100" height="40" as="geometry" />
        </mxCell>
        <mxCell id="SLdXL0dQTTPYN22yqswd-3" value="salary" style="ellipse;whiteSpace=wrap;html=1;align=center;fontSize=16;" parent="1" vertex="1">
          <mxGeometry x="35" y="-48" width="100" height="40" as="geometry" />
        </mxCell>
        <mxCell id="SLdXL0dQTTPYN22yqswd-4" value="id" style="ellipse;whiteSpace=wrap;html=1;align=center;fontStyle=4;fontSize=16;" parent="1" vertex="1">
          <mxGeometry x="181" y="-48" width="100" height="40" as="geometry" />
        </mxCell>
        <mxCell id="SLdXL0dQTTPYN22yqswd-5" value="" style="endArrow=none;html=1;rounded=0;fontSize=12;startSize=8;endSize=8;curved=1;exitX=0.5;exitY=1;exitDx=0;exitDy=0;entryX=0.25;entryY=0;entryDx=0;entryDy=0;" parent="1" source="SLdXL0dQTTPYN22yqswd-3" target="SLdXL0dQTTPYN22yqswd-2" edge="1">
          <mxGeometry relative="1" as="geometry">
            <mxPoint x="159" y="199" as="sourcePoint" />
            <mxPoint x="319" y="199" as="targetPoint" />
          </mxGeometry>
        </mxCell>
        <mxCell id="SLdXL0dQTTPYN22yqswd-6" value="" style="endArrow=none;html=1;rounded=0;fontSize=12;startSize=8;endSize=8;curved=1;exitX=0.5;exitY=1;exitDx=0;exitDy=0;entryX=0.75;entryY=0;entryDx=0;entryDy=0;" parent="1" source="SLdXL0dQTTPYN22yqswd-4" target="SLdXL0dQTTPYN22yqswd-2" edge="1">
          <mxGeometry relative="1" as="geometry">
            <mxPoint x="95" y="2" as="sourcePoint" />
            <mxPoint x="136" y="45" as="targetPoint" />
          </mxGeometry>
        </mxCell>
        <mxCell id="SLdXL0dQTTPYN22yqswd-7" value="Is" style="shape=rhombus;perimeter=rhombusPerimeter;whiteSpace=wrap;html=1;align=center;fontSize=16;" parent="1" vertex="1">
          <mxGeometry x="153" y="198" width="120" height="60" as="geometry" />
        </mxCell>
        <mxCell id="SLdXL0dQTTPYN22yqswd-8" value="" style="endArrow=none;html=1;rounded=0;fontSize=12;startSize=8;endSize=8;curved=1;exitX=1;exitY=1;exitDx=0;exitDy=0;entryX=0.5;entryY=0;entryDx=0;entryDy=0;" parent="1" source="SLdXL0dQTTPYN22yqswd-2" target="SLdXL0dQTTPYN22yqswd-7" edge="1">
          <mxGeometry relative="1" as="geometry">
            <mxPoint x="159" y="199" as="sourcePoint" />
            <mxPoint x="319" y="199" as="targetPoint" />
          </mxGeometry>
        </mxCell>
        <mxCell id="SLdXL0dQTTPYN22yqswd-9" value="1" style="resizable=0;html=1;whiteSpace=wrap;align=right;verticalAlign=bottom;fontSize=16;" parent="SLdXL0dQTTPYN22yqswd-8" connectable="0" vertex="1">
          <mxGeometry x="1" relative="1" as="geometry" />
        </mxCell>
        <mxCell id="SLdXL0dQTTPYN22yqswd-10" value="" style="endArrow=none;html=1;rounded=0;fontSize=12;startSize=8;endSize=8;curved=1;exitX=1;exitY=0.5;exitDx=0;exitDy=0;entryX=0;entryY=1;entryDx=0;entryDy=0;" parent="1" source="7Fv7ONmK5-GxddYxV0Ys-1" target="SLdXL0dQTTPYN22yqswd-7" edge="1">
          <mxGeometry relative="1" as="geometry">
            <mxPoint x="159" y="199" as="sourcePoint" />
            <mxPoint x="319" y="199" as="targetPoint" />
          </mxGeometry>
        </mxCell>
        <mxCell id="SLdXL0dQTTPYN22yqswd-11" value="0" style="resizable=0;html=1;whiteSpace=wrap;align=right;verticalAlign=bottom;fontSize=16;" parent="SLdXL0dQTTPYN22yqswd-10" connectable="0" vertex="1">
          <mxGeometry x="1" relative="1" as="geometry">
            <mxPoint x="6" y="26" as="offset" />
          </mxGeometry>
        </mxCell>
        <mxCell id="SLdXL0dQTTPYN22yqswd-17" value="close time" style="ellipse;whiteSpace=wrap;html=1;align=center;fontSize=16;" parent="1" vertex="1">
          <mxGeometry x="313" y="528" width="100" height="40" as="geometry" />
        </mxCell>
        <mxCell id="SLdXL0dQTTPYN22yqswd-18" value="" style="endArrow=none;html=1;rounded=0;fontSize=12;startSize=8;endSize=8;curved=1;exitX=0.5;exitY=1;exitDx=0;exitDy=0;entryX=0.5;entryY=0;entryDx=0;entryDy=0;" parent="1" source="7Fv7ONmK5-GxddYxV0Ys-80" target="SLdXL0dQTTPYN22yqswd-17" edge="1">
          <mxGeometry relative="1" as="geometry">
            <mxPoint x="364" y="459" as="sourcePoint" />
            <mxPoint x="271" y="507" as="targetPoint" />
          </mxGeometry>
        </mxCell>
        <mxCell id="N3L0w5KxUmx88_u0PXh_-1" value="uid" style="ellipse;whiteSpace=wrap;html=1;align=center;fontSize=16;" vertex="1" parent="1">
          <mxGeometry x="-230" y="276" width="100" height="40" as="geometry" />
        </mxCell>
        <mxCell id="N3L0w5KxUmx88_u0PXh_-2" value="" style="endArrow=none;html=1;rounded=0;fontSize=12;startSize=8;endSize=8;curved=1;exitX=1;exitY=0.5;exitDx=0;exitDy=0;entryX=0;entryY=0.75;entryDx=0;entryDy=0;" edge="1" parent="1" source="N3L0w5KxUmx88_u0PXh_-1" target="7Fv7ONmK5-GxddYxV0Ys-1">
          <mxGeometry relative="1" as="geometry">
            <mxPoint x="-85" y="360" as="sourcePoint" />
            <mxPoint x="53" y="291" as="targetPoint" />
          </mxGeometry>
        </mxCell>
        <mxCell id="N3L0w5KxUmx88_u0PXh_-3" value="Pressure Log" style="whiteSpace=wrap;html=1;align=center;fontSize=16;" vertex="1" parent="1">
          <mxGeometry x="527" y="574" width="100" height="40" as="geometry" />
        </mxCell>
        <mxCell id="N3L0w5KxUmx88_u0PXh_-4" value="pressure" style="ellipse;whiteSpace=wrap;html=1;align=center;fontSize=16;" vertex="1" parent="1">
          <mxGeometry x="384" y="590" width="100" height="40" as="geometry" />
        </mxCell>
        <mxCell id="N3L0w5KxUmx88_u0PXh_-5" value="" style="endArrow=none;html=1;rounded=0;fontSize=12;startSize=8;endSize=8;curved=1;entryX=0;entryY=0.5;entryDx=0;entryDy=0;exitX=1;exitY=0.5;exitDx=0;exitDy=0;" edge="1" parent="1" source="N3L0w5KxUmx88_u0PXh_-4" target="N3L0w5KxUmx88_u0PXh_-3">
          <mxGeometry relative="1" as="geometry">
            <mxPoint x="161" y="591" as="sourcePoint" />
            <mxPoint x="321" y="591" as="targetPoint" />
          </mxGeometry>
        </mxCell>
        <mxCell id="N3L0w5KxUmx88_u0PXh_-6" value="" style="endArrow=none;html=1;rounded=0;fontSize=12;startSize=8;endSize=8;curved=1;entryX=0.5;entryY=1;entryDx=0;entryDy=0;exitX=0.5;exitY=0;exitDx=0;exitDy=0;" edge="1" parent="1" source="N3L0w5KxUmx88_u0PXh_-7" target="N3L0w5KxUmx88_u0PXh_-3">
          <mxGeometry relative="1" as="geometry">
            <mxPoint x="509" y="662" as="sourcePoint" />
            <mxPoint x="537" y="604" as="targetPoint" />
          </mxGeometry>
        </mxCell>
        <mxCell id="N3L0w5KxUmx88_u0PXh_-7" value="time stamp" style="ellipse;whiteSpace=wrap;html=1;align=center;fontStyle=4;fontSize=16;" vertex="1" parent="1">
          <mxGeometry x="512" y="657" width="100" height="40" as="geometry" />
        </mxCell>
        <mxCell id="gWicWnlUBJK0LZ5bvfCV-1" value="uid" style="ellipse;whiteSpace=wrap;html=1;align=center;fontSize=16;" vertex="1" parent="1">
          <mxGeometry x="-47" y="584" width="100" height="40" as="geometry" />
        </mxCell>
        <mxCell id="gWicWnlUBJK0LZ5bvfCV-2" value="" style="endArrow=none;html=1;rounded=0;fontSize=12;startSize=8;endSize=8;curved=1;exitX=0.5;exitY=1;exitDx=0;exitDy=0;entryX=0.5;entryY=0;entryDx=0;entryDy=0;" edge="1" parent="1" source="FswRGte9XY_PrIvu7Jsl-38" target="gWicWnlUBJK0LZ5bvfCV-1">
          <mxGeometry relative="1" as="geometry">
            <mxPoint x="92" y="534" as="sourcePoint" />
            <mxPoint x="124" y="573" as="targetPoint" />
          </mxGeometry>
        </mxCell>
      </root>
    </mxGraphModel>
  </diagram>
  <diagram id="GKhpYahRrjqcxyo39711" name="Page-2">
    <mxGraphModel dx="92" dy="1124" grid="0" gridSize="10" guides="1" tooltips="1" connect="1" arrows="1" fold="1" page="0" pageScale="1" pageWidth="850" pageHeight="1100" math="0" shadow="0">
      <root>
        <mxCell id="0" />
        <mxCell id="1" parent="0" />
        <mxCell id="P8yRG1Xm0cEv9bbSs7wQ-1" value="Drink" style="swimlane;childLayout=stackLayout;horizontal=1;startSize=50;horizontalStack=0;rounded=1;fontSize=14;fontStyle=0;strokeWidth=2;resizeParent=0;resizeLast=1;shadow=0;dashed=0;align=center;arcSize=4;whiteSpace=wrap;html=1;" parent="1" vertex="1">
          <mxGeometry x="1325" y="342" width="160" height="120" as="geometry" />
        </mxCell>
        <mxCell id="P8yRG1Xm0cEv9bbSs7wQ-2" value="+ id&lt;br&gt;+ name&lt;br&gt;+ price&lt;br&gt;+ volume" style="align=left;strokeColor=none;fillColor=none;spacingLeft=4;fontSize=12;verticalAlign=top;resizable=0;rotatable=0;part=1;html=1;" parent="P8yRG1Xm0cEv9bbSs7wQ-1" vertex="1">
          <mxGeometry y="50" width="160" height="70" as="geometry" />
        </mxCell>
        <mxCell id="P8yRG1Xm0cEv9bbSs7wQ-3" value="Person" style="swimlane;childLayout=stackLayout;horizontal=1;startSize=50;horizontalStack=0;rounded=1;fontSize=14;fontStyle=0;strokeWidth=2;resizeParent=0;resizeLast=1;shadow=0;dashed=0;align=center;arcSize=4;whiteSpace=wrap;html=1;" parent="1" vertex="1">
          <mxGeometry x="1042" y="8" width="160" height="182" as="geometry" />
        </mxCell>
        <mxCell id="P8yRG1Xm0cEv9bbSs7wQ-4" value="+ id&lt;br&gt;+ curp&lt;br&gt;+ first name&lt;br&gt;+ last name&lt;br&gt;+ sex&lt;br&gt;+ birth date&lt;br&gt;+ age" style="align=left;strokeColor=none;fillColor=none;spacingLeft=4;fontSize=12;verticalAlign=top;resizable=0;rotatable=0;part=1;html=1;" parent="P8yRG1Xm0cEv9bbSs7wQ-3" vertex="1">
          <mxGeometry y="50" width="160" height="132" as="geometry" />
        </mxCell>
        <mxCell id="P8yRG1Xm0cEv9bbSs7wQ-5" value="Check" style="swimlane;childLayout=stackLayout;horizontal=1;startSize=50;horizontalStack=0;rounded=1;fontSize=14;fontStyle=0;strokeWidth=2;resizeParent=0;resizeLast=1;shadow=0;dashed=0;align=center;arcSize=4;whiteSpace=wrap;html=1;" parent="1" vertex="1">
          <mxGeometry x="1032" y="214" width="160" height="165" as="geometry" />
        </mxCell>
        <mxCell id="P8yRG1Xm0cEv9bbSs7wQ-6" value="+ id&lt;br&gt;+ person id&lt;br&gt;+ open time&lt;br&gt;+ close time&lt;br&gt;+ paid for" style="align=left;strokeColor=none;fillColor=none;spacingLeft=4;fontSize=12;verticalAlign=top;resizable=0;rotatable=0;part=1;html=1;" parent="P8yRG1Xm0cEv9bbSs7wQ-5" vertex="1">
          <mxGeometry y="50" width="160" height="115" as="geometry" />
        </mxCell>
        <mxCell id="P8yRG1Xm0cEv9bbSs7wQ-7" value="Food" style="swimlane;childLayout=stackLayout;horizontal=1;startSize=50;horizontalStack=0;rounded=1;fontSize=14;fontStyle=0;strokeWidth=2;resizeParent=0;resizeLast=1;shadow=0;dashed=0;align=center;arcSize=4;whiteSpace=wrap;html=1;" parent="1" vertex="1">
          <mxGeometry x="1328" y="494" width="160" height="120" as="geometry" />
        </mxCell>
        <mxCell id="P8yRG1Xm0cEv9bbSs7wQ-8" value="+ id&lt;br&gt;+ name&lt;br&gt;+ price&lt;br&gt;+&amp;nbsp;availability" style="align=left;strokeColor=none;fillColor=none;spacingLeft=4;fontSize=12;verticalAlign=top;resizable=0;rotatable=0;part=1;html=1;" parent="P8yRG1Xm0cEv9bbSs7wQ-7" vertex="1">
          <mxGeometry y="50" width="160" height="70" as="geometry" />
        </mxCell>
        <mxCell id="P8yRG1Xm0cEv9bbSs7wQ-9" value="Ingredient" style="swimlane;childLayout=stackLayout;horizontal=1;startSize=50;horizontalStack=0;rounded=1;fontSize=14;fontStyle=0;strokeWidth=2;resizeParent=0;resizeLast=1;shadow=0;dashed=0;align=center;arcSize=4;whiteSpace=wrap;html=1;" parent="1" vertex="1">
          <mxGeometry x="1322" y="41" width="160" height="120" as="geometry" />
        </mxCell>
        <mxCell id="P8yRG1Xm0cEv9bbSs7wQ-10" value="+ id&lt;br&gt;+ name&lt;br&gt;+ availability&lt;br&gt;+ alcoholic" style="align=left;strokeColor=none;fillColor=none;spacingLeft=4;fontSize=12;verticalAlign=top;resizable=0;rotatable=0;part=1;html=1;" parent="P8yRG1Xm0cEv9bbSs7wQ-9" vertex="1">
          <mxGeometry y="50" width="160" height="70" as="geometry" />
        </mxCell>
        <mxCell id="P8yRG1Xm0cEv9bbSs7wQ-11" value="Drink Purchase" style="swimlane;childLayout=stackLayout;horizontal=1;startSize=50;horizontalStack=0;rounded=1;fontSize=14;fontStyle=0;strokeWidth=2;resizeParent=0;resizeLast=1;shadow=0;dashed=0;align=center;arcSize=4;whiteSpace=wrap;html=1;" parent="1" vertex="1">
          <mxGeometry x="1039" y="414" width="160" height="120" as="geometry" />
        </mxCell>
        <mxCell id="P8yRG1Xm0cEv9bbSs7wQ-12" value="+ check id&lt;br&gt;+ drink id&lt;br&gt;+ time stamp" style="align=left;strokeColor=none;fillColor=none;spacingLeft=4;fontSize=12;verticalAlign=top;resizable=0;rotatable=0;part=1;html=1;" parent="P8yRG1Xm0cEv9bbSs7wQ-11" vertex="1">
          <mxGeometry y="50" width="160" height="70" as="geometry" />
        </mxCell>
        <mxCell id="P8yRG1Xm0cEv9bbSs7wQ-13" value="IngredientPerDrink" style="swimlane;childLayout=stackLayout;horizontal=1;startSize=50;horizontalStack=0;rounded=1;fontSize=14;fontStyle=0;strokeWidth=2;resizeParent=0;resizeLast=1;shadow=0;dashed=0;align=center;arcSize=4;whiteSpace=wrap;html=1;" parent="1" vertex="1">
          <mxGeometry x="1325" y="191" width="160" height="120" as="geometry" />
        </mxCell>
        <mxCell id="P8yRG1Xm0cEv9bbSs7wQ-14" value="+ drink id&lt;br&gt;+ ingredient id&lt;br&gt;+ percentage" style="align=left;strokeColor=none;fillColor=none;spacingLeft=4;fontSize=12;verticalAlign=top;resizable=0;rotatable=0;part=1;html=1;" parent="P8yRG1Xm0cEv9bbSs7wQ-13" vertex="1">
          <mxGeometry y="50" width="160" height="70" as="geometry" />
        </mxCell>
        <mxCell id="P8yRG1Xm0cEv9bbSs7wQ-15" value="" style="edgeStyle=entityRelationEdgeStyle;fontSize=12;html=1;endArrow=ERzeroToMany;startArrow=ERmandOne;rounded=0;startSize=8;endSize=8;curved=1;exitX=1;exitY=0.5;exitDx=0;exitDy=0;entryX=1;entryY=0.25;entryDx=0;entryDy=0;" parent="1" source="P8yRG1Xm0cEv9bbSs7wQ-4" target="P8yRG1Xm0cEv9bbSs7wQ-6" edge="1">
          <mxGeometry width="100" height="100" relative="1" as="geometry">
            <mxPoint x="1456" y="108" as="sourcePoint" />
            <mxPoint x="1556" y="8" as="targetPoint" />
          </mxGeometry>
        </mxCell>
        <mxCell id="P8yRG1Xm0cEv9bbSs7wQ-16" value="" style="edgeStyle=entityRelationEdgeStyle;fontSize=12;html=1;endArrow=ERmany;rounded=0;startSize=8;endSize=8;curved=1;entryX=0;entryY=0.25;entryDx=0;entryDy=0;exitX=1;exitY=0.5;exitDx=0;exitDy=0;" parent="1" source="P8yRG1Xm0cEv9bbSs7wQ-11" target="P8yRG1Xm0cEv9bbSs7wQ-2" edge="1">
          <mxGeometry width="100" height="100" relative="1" as="geometry">
            <mxPoint x="1366" y="90" as="sourcePoint" />
            <mxPoint x="1466" y="-10" as="targetPoint" />
          </mxGeometry>
        </mxCell>
        <mxCell id="P8yRG1Xm0cEv9bbSs7wQ-17" value="" style="edgeStyle=entityRelationEdgeStyle;fontSize=12;html=1;endArrow=ERmany;rounded=0;startSize=8;endSize=8;curved=1;entryX=0;entryY=0.25;entryDx=0;entryDy=0;exitX=1;exitY=0.5;exitDx=0;exitDy=0;" parent="1" source="P8yRG1Xm0cEv9bbSs7wQ-26" target="P8yRG1Xm0cEv9bbSs7wQ-8" edge="1">
          <mxGeometry width="100" height="100" relative="1" as="geometry">
            <mxPoint x="1425" y="342" as="sourcePoint" />
            <mxPoint x="1477" y="292" as="targetPoint" />
          </mxGeometry>
        </mxCell>
        <mxCell id="P8yRG1Xm0cEv9bbSs7wQ-18" value="" style="edgeStyle=entityRelationEdgeStyle;fontSize=12;html=1;endArrow=ERmany;rounded=0;startSize=8;endSize=8;curved=1;entryX=1;entryY=0.75;entryDx=0;entryDy=0;exitX=1;exitY=0.25;exitDx=0;exitDy=0;" parent="1" source="P8yRG1Xm0cEv9bbSs7wQ-11" target="P8yRG1Xm0cEv9bbSs7wQ-6" edge="1">
          <mxGeometry width="100" height="100" relative="1" as="geometry">
            <mxPoint x="1425" y="367" as="sourcePoint" />
            <mxPoint x="1480" y="444" as="targetPoint" />
            <Array as="points">
              <mxPoint x="1229" y="284" />
            </Array>
          </mxGeometry>
        </mxCell>
        <mxCell id="P8yRG1Xm0cEv9bbSs7wQ-19" value="" style="edgeStyle=entityRelationEdgeStyle;fontSize=12;html=1;endArrow=ERmany;rounded=0;startSize=8;endSize=8;curved=1;entryX=0;entryY=0.25;entryDx=0;entryDy=0;exitX=0;exitY=0.5;exitDx=0;exitDy=0;" parent="1" source="P8yRG1Xm0cEv9bbSs7wQ-14" target="P8yRG1Xm0cEv9bbSs7wQ-10" edge="1">
          <mxGeometry width="100" height="100" relative="1" as="geometry">
            <mxPoint x="1200" y="537" as="sourcePoint" />
            <mxPoint x="1335" y="420" as="targetPoint" />
          </mxGeometry>
        </mxCell>
        <mxCell id="P8yRG1Xm0cEv9bbSs7wQ-20" value="" style="edgeStyle=entityRelationEdgeStyle;fontSize=12;html=1;endArrow=ERmany;rounded=0;startSize=8;endSize=8;curved=1;entryX=0;entryY=0.75;entryDx=0;entryDy=0;exitX=0;exitY=0.75;exitDx=0;exitDy=0;" parent="1" source="P8yRG1Xm0cEv9bbSs7wQ-14" target="P8yRG1Xm0cEv9bbSs7wQ-2" edge="1">
          <mxGeometry width="100" height="100" relative="1" as="geometry">
            <mxPoint x="1335" y="286" as="sourcePoint" />
            <mxPoint x="1332" y="119" as="targetPoint" />
          </mxGeometry>
        </mxCell>
        <mxCell id="P8yRG1Xm0cEv9bbSs7wQ-21" value="DHT Log" style="swimlane;childLayout=stackLayout;horizontal=1;startSize=50;horizontalStack=0;rounded=1;fontSize=14;fontStyle=0;strokeWidth=2;resizeParent=0;resizeLast=1;shadow=0;dashed=0;align=center;arcSize=4;whiteSpace=wrap;html=1;" parent="1" vertex="1">
          <mxGeometry x="1507" y="-94" width="160" height="120" as="geometry" />
        </mxCell>
        <mxCell id="P8yRG1Xm0cEv9bbSs7wQ-22" value="+ time stamp&lt;br&gt;+ temperature&lt;br&gt;+ humidity" style="align=left;strokeColor=none;fillColor=none;spacingLeft=4;fontSize=12;verticalAlign=top;resizable=0;rotatable=0;part=1;html=1;" parent="P8yRG1Xm0cEv9bbSs7wQ-21" vertex="1">
          <mxGeometry y="50" width="160" height="70" as="geometry" />
        </mxCell>
        <mxCell id="P8yRG1Xm0cEv9bbSs7wQ-23" value="Volume Log" style="swimlane;childLayout=stackLayout;horizontal=1;startSize=50;horizontalStack=0;rounded=1;fontSize=14;fontStyle=0;strokeWidth=2;resizeParent=0;resizeLast=1;shadow=0;dashed=0;align=center;arcSize=4;whiteSpace=wrap;html=1;" parent="1" vertex="1">
          <mxGeometry x="1507" y="37" width="160" height="120" as="geometry" />
        </mxCell>
        <mxCell id="P8yRG1Xm0cEv9bbSs7wQ-24" value="+ time stamp&lt;br&gt;+ decibels" style="align=left;strokeColor=none;fillColor=none;spacingLeft=4;fontSize=12;verticalAlign=top;resizable=0;rotatable=0;part=1;html=1;" parent="P8yRG1Xm0cEv9bbSs7wQ-23" vertex="1">
          <mxGeometry y="50" width="160" height="70" as="geometry" />
        </mxCell>
        <mxCell id="P8yRG1Xm0cEv9bbSs7wQ-25" value="Food Purchase" style="swimlane;childLayout=stackLayout;horizontal=1;startSize=50;horizontalStack=0;rounded=1;fontSize=14;fontStyle=0;strokeWidth=2;resizeParent=0;resizeLast=1;shadow=0;dashed=0;align=center;arcSize=4;whiteSpace=wrap;html=1;" parent="1" vertex="1">
          <mxGeometry x="1036" y="548" width="160" height="120" as="geometry" />
        </mxCell>
        <mxCell id="P8yRG1Xm0cEv9bbSs7wQ-26" value="+ check id&lt;br&gt;+ food id&lt;br&gt;+ time stamp" style="align=left;strokeColor=none;fillColor=none;spacingLeft=4;fontSize=12;verticalAlign=top;resizable=0;rotatable=0;part=1;html=1;" parent="P8yRG1Xm0cEv9bbSs7wQ-25" vertex="1">
          <mxGeometry y="50" width="160" height="70" as="geometry" />
        </mxCell>
        <mxCell id="P8yRG1Xm0cEv9bbSs7wQ-27" value="" style="edgeStyle=entityRelationEdgeStyle;fontSize=12;html=1;endArrow=ERmany;rounded=0;startSize=8;endSize=8;curved=1;entryX=1;entryY=0.5;entryDx=0;entryDy=0;exitX=1;exitY=0.25;exitDx=0;exitDy=0;" parent="1" source="P8yRG1Xm0cEv9bbSs7wQ-26" target="P8yRG1Xm0cEv9bbSs7wQ-6" edge="1">
          <mxGeometry width="100" height="100" relative="1" as="geometry">
            <mxPoint x="1209" y="374" as="sourcePoint" />
            <mxPoint x="1202" y="280" as="targetPoint" />
            <Array as="points">
              <mxPoint x="1239" y="294" />
            </Array>
          </mxGeometry>
        </mxCell>
        <mxCell id="P8yRG1Xm0cEv9bbSs7wQ-28" value="Employee" style="swimlane;childLayout=stackLayout;horizontal=1;startSize=50;horizontalStack=0;rounded=1;fontSize=14;fontStyle=0;strokeWidth=2;resizeParent=0;resizeLast=1;shadow=0;dashed=0;align=center;arcSize=4;whiteSpace=wrap;html=1;" parent="1" vertex="1">
          <mxGeometry x="1042" y="-139" width="160" height="120" as="geometry" />
        </mxCell>
        <mxCell id="P8yRG1Xm0cEv9bbSs7wQ-29" value="+ id&lt;br&gt;+ person id&lt;br&gt;+ salary" style="align=left;strokeColor=none;fillColor=none;spacingLeft=4;fontSize=12;verticalAlign=top;resizable=0;rotatable=0;part=1;html=1;" parent="P8yRG1Xm0cEv9bbSs7wQ-28" vertex="1">
          <mxGeometry y="50" width="160" height="70" as="geometry" />
        </mxCell>
        <mxCell id="P8yRG1Xm0cEv9bbSs7wQ-30" value="" style="edgeStyle=entityRelationEdgeStyle;fontSize=12;html=1;endArrow=ERzeroToOne;startArrow=ERmandOne;rounded=0;startSize=8;endSize=8;curved=1;entryX=1;entryY=0.25;entryDx=0;entryDy=0;exitX=1;exitY=0.25;exitDx=0;exitDy=0;" parent="1" source="P8yRG1Xm0cEv9bbSs7wQ-4" target="P8yRG1Xm0cEv9bbSs7wQ-29" edge="1">
          <mxGeometry width="100" height="100" relative="1" as="geometry">
            <mxPoint x="1078" y="269" as="sourcePoint" />
            <mxPoint x="1178" y="169" as="targetPoint" />
          </mxGeometry>
        </mxCell>
        <mxCell id="P8yRG1Xm0cEv9bbSs7wQ-31" value="Assistance Log" style="swimlane;childLayout=stackLayout;horizontal=1;startSize=50;horizontalStack=0;rounded=1;fontSize=14;fontStyle=0;strokeWidth=2;resizeParent=0;resizeLast=1;shadow=0;dashed=0;align=center;arcSize=4;whiteSpace=wrap;html=1;" parent="1" vertex="1">
          <mxGeometry x="1318" y="-94" width="160" height="120" as="geometry" />
        </mxCell>
        <mxCell id="P8yRG1Xm0cEv9bbSs7wQ-32" value="+ time stamp&lt;br&gt;+ uid" style="align=left;strokeColor=none;fillColor=none;spacingLeft=4;fontSize=12;verticalAlign=top;resizable=0;rotatable=0;part=1;html=1;" parent="P8yRG1Xm0cEv9bbSs7wQ-31" vertex="1">
          <mxGeometry y="50" width="160" height="70" as="geometry" />
        </mxCell>
        <mxCell id="a6CQYYI28YvjDWGjmG9e-1" value="Pressure Log" style="swimlane;childLayout=stackLayout;horizontal=1;startSize=50;horizontalStack=0;rounded=1;fontSize=14;fontStyle=0;strokeWidth=2;resizeParent=0;resizeLast=1;shadow=0;dashed=0;align=center;arcSize=4;whiteSpace=wrap;html=1;" vertex="1" parent="1">
          <mxGeometry x="1507" y="185" width="160" height="120" as="geometry" />
        </mxCell>
        <mxCell id="a6CQYYI28YvjDWGjmG9e-2" value="+ time stamp&lt;br&gt;+ pressure" style="align=left;strokeColor=none;fillColor=none;spacingLeft=4;fontSize=12;verticalAlign=top;resizable=0;rotatable=0;part=1;html=1;" vertex="1" parent="a6CQYYI28YvjDWGjmG9e-1">
          <mxGeometry y="50" width="160" height="70" as="geometry" />
        </mxCell>
      </root>
    </mxGraphModel>
  </diagram>
</mxfile>
